# Blender v2.92.0 OBJ File: 'needle.blend'
# www.blender.org
mtllib needle.mtl
o Cube
v 0.239288 -0.119987 0.239288
v 0.239288 -0.119987 -0.239288
v -0.239288 -0.119987 0.239288
v -0.239288 -0.119987 -0.239288
v 0.326780 0.067580 0.708437
v 0.367858 0.120013 -0.367858
v -0.326780 0.067580 0.708437
v -0.367858 0.120013 -0.367858
v 0.326780 -0.067580 0.708437
v 0.367858 -0.120000 -0.367858
v -0.326780 -0.067580 0.708437
v -0.367858 -0.120000 -0.367858
v 0.239288 0.120051 0.239288
v 0.239288 0.120051 -0.239288
v -0.239288 0.120051 0.239288
v -0.239288 0.120051 -0.239288
v -0.425980 -0.129922 0.432858
v -0.425980 0.129931 0.432858
v 0.425980 -0.129922 0.432858
v 0.425980 0.129931 0.432858
v -0.013017 -0.002381 5.820755
v -0.013017 0.002381 5.820755
v 0.013017 -0.002381 5.820755
v 0.013017 0.002381 5.820755
v -0.081336 0.014878 3.348802
v 0.081336 0.014878 3.348802
v -0.081336 -0.014878 3.348802
v 0.081336 -0.014878 3.348802
v -0.046459 0.008498 4.529601
v -0.046459 -0.008498 4.529601
v 0.046459 0.008498 4.529601
v 0.046459 -0.008498 4.529601
v -0.027907 0.005105 5.315521
v -0.027907 -0.005105 5.315521
v 0.027907 0.005105 5.315522
v 0.027907 -0.005105 5.315521
v 0.205270 0.037548 1.312516
v 0.205270 -0.037548 1.312516
v -0.205270 0.037548 1.312516
v -0.205270 -0.037548 1.312516
v -0.130929 0.023949 2.272604
v -0.130929 -0.023949 2.272603
v 0.130929 0.023949 2.272604
v 0.130929 -0.023949 2.272604
v 0.000000 0.120013 -0.505804
v 0.391964 0.000002 -0.391964
v 0.516184 -0.121227 0.007085
v -0.516184 0.121239 0.007085
v -0.516184 -0.121227 0.007085
v 0.516184 0.121239 0.007085
v -0.551977 0.000001 0.408143
v 0.000000 -0.158610 0.528307
v -0.391964 0.000002 -0.391964
v 0.000000 0.158622 0.528307
v 0.551977 0.000001 0.408143
v 0.000000 -0.120000 -0.505804
v 0.329021 -0.119987 0.000000
v -0.329021 -0.119987 0.000000
v -0.000000 -0.119987 0.329021
v 0.000000 -0.119987 -0.329021
v 0.310084 -0.167177 0.310658
v 0.303573 -0.164998 -0.303573
v -0.303573 -0.164998 -0.303573
v -0.310084 -0.167177 0.310658
v 0.329021 0.120051 0.000000
v -0.329021 0.120051 -0.000000
v -0.000000 0.120051 0.329021
v -0.000000 0.120051 -0.329021
v -0.215181 0.000037 0.215181
v 0.215181 0.000037 0.215181
v 0.215181 0.000037 -0.215181
v -0.215181 0.000037 -0.215181
v 0.310084 0.167215 0.310658
v 0.303573 0.165037 -0.303573
v -0.303573 0.165037 -0.303573
v -0.310084 0.167215 0.310658
v -0.449322 -0.000000 0.708437
v 0.000000 -0.092922 0.708437
v 0.000000 0.092922 0.708437
v 0.449322 -0.000000 0.708437
v -0.372553 -0.092882 0.595788
v -0.372553 0.092883 0.595788
v 0.372553 -0.092882 0.595788
v 0.372553 0.092883 0.595788
v -0.015039 -0.000000 5.857660
v 0.000000 -0.002751 5.857660
v 0.000000 0.002751 5.857660
v 0.015039 0.000000 5.857660
v -0.020045 0.003667 5.631032
v 0.266242 0.049676 0.946603
v -0.020045 -0.003667 5.631032
v 0.266242 -0.049676 0.946603
v -0.104588 0.019131 2.790371
v 0.061684 0.011283 3.960972
v -0.104588 -0.019131 2.790371
v 0.061684 -0.011283 3.960973
v -0.000000 -0.020457 3.348802
v 0.111836 0.000000 3.348802
v -0.111836 -0.000000 3.348802
v 0.000000 0.020457 3.348802
v -0.061684 0.011283 3.960973
v -0.061684 -0.011283 3.960973
v 0.035939 0.006574 4.964664
v 0.035939 -0.006574 4.964663
v 0.000000 -0.011685 4.529601
v 0.063881 0.000000 4.529601
v -0.063881 -0.000000 4.529601
v 0.000000 0.011685 4.529601
v -0.035939 0.006574 4.964664
v -0.035939 -0.006574 4.964664
v 0.020045 0.003667 5.631032
v 0.020045 -0.003667 5.631032
v 0.000000 -0.007019 5.315521
v 0.038372 -0.000000 5.315521
v -0.038372 0.000000 5.315521
v -0.000000 0.007019 5.315521
v 0.161689 0.029576 1.769350
v 0.161689 -0.029576 1.769350
v -0.266242 0.049676 0.946603
v -0.266242 -0.049676 0.946603
v -0.000000 0.051628 1.312516
v -0.282247 0.000000 1.312516
v 0.282247 0.000000 1.312516
v 0.000000 -0.051628 1.312516
v -0.161689 0.029576 1.769350
v -0.161689 -0.029576 1.769350
v 0.104588 0.019131 2.790370
v 0.104588 -0.019131 2.790370
v -0.000000 0.032930 2.272604
v -0.180027 -0.000000 2.272604
v 0.180027 0.000000 2.272604
v 0.000000 -0.032930 2.272604
v -0.000000 0.005012 5.634672
v -0.557679 0.000002 0.003542
v -0.000000 0.165037 -0.417413
v 0.000000 0.000002 -0.538951
v -0.000000 0.000037 0.295874
v 0.557679 0.000002 0.003542
v 0.419041 -0.165305 0.001771
v -0.419041 -0.165305 0.001771
v -0.000000 -0.169418 0.420955
v -0.000000 -0.164998 -0.417413
v 0.419041 0.165343 0.001771
v 0.295874 0.000037 0.000000
v 0.000000 0.000037 -0.295874
v -0.295874 0.000037 -0.000000
v -0.419041 0.165343 0.001771
v 0.000000 0.169456 0.420955
v -0.508416 0.000000 0.590590
v 0.000000 -0.125856 0.603239
v 0.000000 0.125857 0.603239
v 0.508416 0.000000 0.590590
v 0.000000 0.000000 5.935109
v -0.027402 -0.000000 5.634672
v 0.027402 0.000000 5.634672
v 0.000000 -0.005012 5.634672
v -0.000000 -0.026305 2.790370
v 0.143809 0.000000 2.790370
v -0.143809 0.000000 2.790371
v -0.000000 0.026305 2.790371
v 0.000000 -0.015514 3.960973
v 0.084816 0.000000 3.960972
v -0.084816 0.000000 3.960973
v 0.000000 0.015514 3.960972
v 0.000000 -0.009039 4.964664
v 0.049416 0.000000 4.964664
v -0.049416 0.000000 4.964664
v 0.000000 0.009039 4.964664
v 0.000000 0.068305 0.946603
v -0.366082 0.000000 0.946603
v 0.366082 -0.000000 0.946603
v -0.000000 -0.068305 0.946603
v 0.000000 0.040667 1.769350
v -0.222322 -0.000000 1.769350
v 0.222322 0.000000 1.769350
v 0.000000 -0.040667 1.769350
vt 0.793530 0.553608
vt 0.810307 0.628718
vt 0.809501 0.630040
vt 0.791666 0.556665
vt 0.793530 0.732089
vt 0.809854 0.732089
vt 0.793530 0.732089
vt 0.791666 0.631776
vt 0.782647 0.571456
vt 0.333333 0.791667
vt 0.500000 0.781979
vt 0.500000 0.879371
vt 0.369792 0.880208
vt 0.666667 0.791667
vt 0.630208 0.880208
vt 0.625000 1.000000
vt 0.500000 1.000000
vt 0.375000 1.000000
vt 0.375000 0.333333
vt 0.265625 0.505208
vt 0.353143 0.565104
vt 0.415922 0.457589
vt 0.250000 0.708333
vt 0.353422 0.688244
vt 0.456845 0.668155
vt 0.440661 0.625000
vt 0.456845 0.581845
vt 0.125000 0.500000
vt 0.244792 0.494792
vt 0.245629 0.625000
vt 0.125000 0.625000
vt 0.333333 0.458333
vt 0.343021 0.625000
vt 0.244792 0.755208
vt 0.125000 0.750000
vt 0.549852 0.575148
vt 0.568546 0.625000
vt 0.560490 0.625000
vt 0.543992 0.581008
vt 0.549852 0.674852
vt 0.543992 0.668992
vt 0.543155 0.668155
vt 0.559339 0.625000
vt 0.543155 0.581845
vt 0.375000 0.250000
vt 0.500000 0.250000
vt 0.500000 0.370629
vt 0.369792 0.369792
vt 0.625000 0.250000
vt 0.630208 0.369792
vt 0.666667 0.458333
vt 0.500000 0.468021
vt 0.500000 0.556454
vt 0.500000 0.530781
vt 0.571024 0.553315
vt 0.450148 0.575148
vt 0.428315 0.553315
vt 0.450148 0.674852
vt 0.500000 0.693546
vt 0.500000 0.719219
vt 0.428315 0.696685
vt 0.571024 0.696685
vt 0.591576 0.625000
vt 0.631870 0.625000
vt 0.431454 0.625000
vt 0.405781 0.625000
vt 0.497396 0.420852
vt 0.494792 0.276042
vt 0.500000 0.565661
vt 0.563244 0.478422
vt 0.583333 0.375000
vt 0.500000 0.564510
vt 0.456008 0.581008
vt 0.439511 0.625000
vt 0.456008 0.668992
vt 0.500000 0.685490
vt 0.500000 0.684339
vt 0.380208 0.848958
vt 0.440104 0.766648
vt 0.541667 0.833333
vt 0.542411 0.750744
vt 0.609375 0.619792
vt 0.584357 0.622396
vt 0.684705 0.696392
vt 0.748355 0.726458
vt 0.749702 0.733405
vt 0.684753 0.709369
vt 0.800164 0.698383
vt 0.814261 0.702612
vt 0.833333 0.708333
vt 0.750000 0.750000
vt 0.706470 0.553608
vt 0.687426 0.625000
vt 0.662320 0.625000
vt 0.686566 0.540693
vt 0.818807 0.621468
vt 0.838203 0.624303
vt 0.793530 0.517911
vt 0.813639 0.544663
vt 0.833333 0.541667
vt 0.864583 0.625000
vt 0.750000 0.522374
vt 0.750000 0.516146
vt 0.750000 0.500000
vt 0.717353 0.571456
vt 0.750000 0.559722
vt 0.750000 0.630619
vt 0.708334 0.631776
vt 0.750000 0.732089
vt 0.706470 0.732089
vt 0.815295 0.732089
vt 0.750000 0.732089
vt 0.750000 0.732089
vt 0.815295 0.732089
vt 0.684705 0.732089
vt 0.684705 0.732089
vt 0.684705 0.732089
vt 0.815295 0.732089
vt 0.684705 0.553608
vt 0.747733 0.526092
vt 0.749547 0.530967
vt 0.706520 0.556665
vt 0.684705 0.629462
vt 0.689592 0.630040
vt 0.687426 0.732089
vt 0.684705 0.732089
vt 0.684705 0.629462
vt 0.687426 0.629462
vt 0.687426 0.732089
vt 0.684705 0.553608
vt 0.704656 0.553608
vt 0.706470 0.553608
vt 0.689693 0.628718
vt 0.706470 0.732089
vt 0.750000 0.525348
vt 0.750000 0.526836
vt 0.815295 0.553608
vt 0.795344 0.553608
vt 0.793530 0.553608
vt 0.750000 0.526836
vt 0.815295 0.732089
vt 0.750000 0.732089
vt 0.750000 0.732089
vt 0.815295 0.732089
vt 0.684705 0.732089
vt 0.684705 0.732089
vt 0.750000 0.732089
vt 0.815295 0.732089
vt 0.815295 0.629462
vt 0.812574 0.629462
vt 0.812574 0.732089
vt 0.793530 0.732089
vt 0.810307 0.628718
vt 0.689239 0.625744
vt 0.704656 0.699367
vt 0.704656 0.553608
vt 0.684705 0.553608
vt 0.684705 0.625000
vt 0.684705 0.696392
vt 0.749547 0.526836
vt 0.793530 0.553608
vt 0.793530 0.553608
vt 0.747733 0.526092
vt 0.749546 0.724652
vt 0.793530 0.699367
vt 0.747733 0.723908
vt 0.793530 0.696392
vt 0.809854 0.625744
vt 0.809854 0.625000
vt 0.684705 0.732089
vt 0.684705 0.625000
vt 0.684705 0.732089
vt 0.684705 0.517912
vt 0.684705 0.517912
vt 0.684705 0.517912
vt 0.684705 0.625000
vt 0.747280 0.523861
vt 0.684705 0.526836
vt 0.793530 0.553608
vt 0.747279 0.727627
vt 0.793530 0.699367
vt 0.684705 0.727627
vt 0.747279 0.732089
vt 0.809854 0.625744
vt 0.813559 0.620585
vt 0.812574 0.517912
vt 0.796173 0.696641
vt 0.815295 0.696392
vt 0.815295 0.620538
vt 0.815295 0.517911
vt 0.747888 0.727178
vt 0.684705 0.727627
vt 0.684705 0.732089
vt 0.749547 0.728370
vt 0.752721 0.522374
vt 0.752721 0.521630
vt 0.706470 0.550633
vt 0.815295 0.517912
vt 0.815295 0.517911
vt 0.752721 0.517911
vt 0.706470 0.517911
vt 0.684705 0.732089
vt 0.687426 0.629462
vt 0.687426 0.628718
vt 0.684705 0.732089
vt 0.686972 0.625744
vt 0.815295 0.625000
vt 0.815295 0.625000
vt 0.815295 0.517911
vt 0.815295 0.732089
vt 0.815295 0.732089
vt 0.815295 0.625000
vt 0.815295 0.517911
vt 0.750000 0.731345
vt 0.815295 0.727627
vt 0.684705 0.732089
vt 0.684705 0.517911
vt 0.750000 0.517911
vt 0.750000 0.519399
vt 0.684705 0.522373
vt 0.815295 0.522373
vt 0.685158 0.625000
vt 0.687426 0.517911
vt 0.684705 0.517911
vt 0.684705 0.625000
vn 0.0683 0.9976 0.0063
vn -0.0683 0.9976 0.0063
vn -0.0636 0.9979 0.0097
vn 0.0636 0.9979 0.0097
vn -0.8880 -0.2830 -0.3624
vn -0.8332 -0.5455 0.0905
vn -0.8332 0.5455 0.0905
vn -0.8880 0.2830 -0.3624
vn 0.1678 0.8784 -0.4474
vn -0.1678 0.8784 -0.4474
vn 0.1677 0.8786 0.4472
vn -0.1677 0.8786 0.4472
vn 0.3399 0.2504 -0.9065
vn 0.3399 -0.2504 -0.9065
vn -0.3399 -0.2504 -0.9065
vn -0.3399 0.2504 -0.9065
vn 0.8880 0.2830 -0.3624
vn 0.8332 0.5455 0.0905
vn 0.8332 -0.5455 0.0905
vn 0.8880 -0.2830 -0.3624
vn -0.4361 -0.8854 -0.1611
vn -0.4465 -0.8789 0.1677
vn 0.4285 -0.8878 -0.1681
vn 0.3176 -0.9455 0.0725
vn 0.4465 -0.8789 0.1677
vn 0.4361 -0.8854 -0.1611
vn -0.3176 -0.9455 0.0725
vn -0.4285 -0.8878 -0.1681
vn 0.1603 -0.8784 -0.4502
vn -0.1603 -0.8784 -0.4502
vn 0.0866 -0.9830 0.1621
vn -0.0866 -0.9830 0.1621
vn -0.1678 -0.8785 0.4473
vn 0.1678 -0.8785 0.4473
vn -0.1677 -0.8785 -0.4472
vn 0.1677 -0.8785 -0.4472
vn 0.4287 0.8877 -0.1682
vn -0.4463 0.8790 0.1677
vn -0.4359 0.8855 -0.1610
vn 0.3177 0.9454 0.0725
vn -0.9065 -0.2504 0.3399
vn -0.9065 -0.2504 -0.3399
vn -0.9065 0.2504 -0.3399
vn -0.9065 0.2504 0.3399
vn 0.3399 -0.2504 0.9065
vn -0.3399 -0.2504 0.9065
vn -0.3399 0.2504 0.9065
vn 0.3399 0.2504 0.9065
vn 0.9065 -0.2504 -0.3399
vn 0.9065 -0.2504 0.3399
vn 0.9065 0.2504 0.3399
vn 0.9065 0.2504 -0.3399
vn -0.4287 0.8877 -0.1682
vn -0.3177 0.9454 0.0725
vn 0.4359 0.8855 -0.1610
vn 0.4463 0.8790 0.1677
vn -0.0867 0.9829 0.1623
vn 0.0867 0.9829 0.1623
vn -0.1603 0.8785 -0.4500
vn 0.1603 0.8785 -0.4500
vn -0.5048 -0.8026 0.3178
vn -0.5048 0.8026 0.3178
vn -0.6430 0.7211 0.2579
vn -0.6430 -0.7211 0.2579
vn 0.0828 -0.9583 0.2736
vn -0.0828 -0.9583 0.2736
vn -0.1121 -0.9464 0.3029
vn 0.1121 -0.9464 0.3029
vn -0.0828 0.9583 0.2736
vn 0.0828 0.9583 0.2736
vn 0.1121 0.9464 0.3029
vn -0.1121 0.9464 0.3029
vn 0.5048 0.8026 0.3178
vn 0.5048 -0.8026 0.3178
vn 0.6430 -0.7211 0.2579
vn 0.6430 0.7211 0.2579
vn 0.1798 -0.9829 0.0409
vn 0.1798 0.9829 0.0409
vn -0.1798 0.9829 0.0409
vn -0.1798 -0.9829 0.0409
vn -0.4390 0.8983 0.0151
vn -0.4390 -0.8983 0.0151
vn -0.4645 -0.8852 0.0246
vn -0.4645 0.8852 0.0246
vn 0.4390 -0.8983 0.0151
vn 0.4391 0.8983 0.0151
vn 0.4645 0.8852 0.0246
vn 0.4645 -0.8852 0.0246
vn -0.0683 -0.9976 0.0063
vn 0.0683 -0.9976 0.0063
vn 0.0636 -0.9979 0.0097
vn -0.0636 -0.9979 0.0097
vn -0.0684 -0.9976 0.0128
vn 0.0684 -0.9976 0.0128
vn 0.0684 -0.9976 0.0104
vn -0.0684 -0.9976 0.0104
vn 0.4382 -0.8984 0.0307
vn 0.4382 0.8984 0.0307
vn 0.4383 0.8985 0.0251
vn 0.4383 -0.8985 0.0251
vn -0.4382 0.8984 0.0307
vn -0.4382 -0.8984 0.0307
vn -0.4383 -0.8985 0.0251
vn -0.4383 0.8985 0.0251
vn 0.0684 0.9976 0.0128
vn -0.0684 0.9976 0.0128
vn -0.0684 0.9976 0.0104
vn 0.0684 0.9976 0.0104
vn -0.0684 -0.9976 0.0081
vn 0.0684 -0.9976 0.0081
vn 0.0684 -0.9976 0.0067
vn -0.0684 -0.9976 0.0067
vn 0.4383 -0.8986 0.0193
vn 0.4383 0.8986 0.0193
vn 0.4384 0.8987 0.0161
vn 0.4384 -0.8987 0.0161
vn -0.4383 0.8986 0.0193
vn -0.4383 -0.8986 0.0193
vn -0.4384 -0.8987 0.0161
vn -0.4384 0.8987 0.0161
vn 0.0684 0.9976 0.0081
vn -0.0684 0.9976 0.0081
vn -0.0684 0.9976 0.0067
vn 0.0684 0.9976 0.0067
vn -0.0684 -0.9976 0.0061
vn 0.0684 -0.9976 0.0061
vn 0.0684 -0.9976 0.0057
vn -0.0684 -0.9976 0.0057
vn 0.4384 -0.8987 0.0146
vn 0.4384 0.8987 0.0146
vn 0.4384 0.8987 0.0138
vn 0.4384 -0.8987 0.0138
vn -0.4384 0.8987 0.0146
vn -0.4384 -0.8987 0.0146
vn -0.4384 -0.8987 0.0138
vn -0.4384 0.8987 0.0138
vn 0.0684 0.9976 0.0061
vn -0.0684 0.9976 0.0061
vn -0.0684 0.9976 0.0057
vn 0.0684 0.9976 0.0057
vn 0.0736 0.9925 0.0979
vn -0.0736 0.9925 0.0979
vn -0.0691 0.9966 0.0450
vn 0.0691 0.9966 0.0450
vn -0.4595 0.8715 0.1715
vn -0.4595 -0.8715 0.1715
vn -0.4401 -0.8922 0.1019
vn -0.4401 0.8922 0.1019
vn 0.4595 -0.8715 0.1715
vn 0.4595 0.8715 0.1715
vn 0.4401 0.8922 0.1019
vn 0.4401 -0.8922 0.1019
vn -0.0736 -0.9925 0.0979
vn 0.0736 -0.9925 0.0979
vn 0.0691 -0.9966 0.0450
vn -0.0691 -0.9966 0.0450
vn 0.0684 0.9974 0.0239
vn -0.0684 0.9974 0.0239
vn -0.0684 0.9975 0.0153
vn 0.0684 0.9975 0.0153
vn -0.4377 0.8973 0.0574
vn -0.4377 -0.8973 0.0574
vn -0.4381 -0.8982 0.0368
vn -0.4381 0.8982 0.0368
vn 0.4377 -0.8973 0.0574
vn 0.4377 0.8973 0.0574
vn 0.4381 0.8982 0.0368
vn 0.4381 -0.8982 0.0368
vn -0.0684 -0.9974 0.0239
vn 0.0684 -0.9974 0.0239
vn 0.0684 -0.9975 0.0153
vn -0.0684 -0.9975 0.0153
usemtl Material
s off
f 35/1/1 116/2/1 133/3/1 111/4/1
f 116/2/2 33/5/2 89/6/2 133/3/2
f 133/3/3 89/6/3 22/7/3 87/8/3
f 111/4/4 133/3/4 87/8/4 24/9/4
f 12/10/5 49/11/5 134/12/5 53/13/5
f 49/11/6 17/14/6 51/15/6 134/12/6
f 134/12/7 51/15/7 18/16/7 48/17/7
f 53/13/8 134/12/8 48/17/8 8/18/8
f 6/19/9 45/20/9 135/21/9 74/22/9
f 45/20/10 8/23/10 75/24/10 135/21/10
f 135/21/11 75/24/11 16/25/11 68/26/11
f 74/22/12 135/21/12 68/26/12 14/27/12
f 6/28/13 46/29/13 136/30/13 45/31/13
f 46/29/14 10/32/14 56/33/14 136/30/14
f 136/30/15 56/33/15 12/10/15 53/34/15
f 45/31/16 136/30/16 53/34/16 8/35/16
f 1/36/15 59/37/15 137/38/15 70/39/15
f 59/37/14 3/40/14 69/41/14 137/38/14
f 137/38/13 69/41/13 15/42/13 67/43/13
f 70/39/16 137/38/16 67/43/16 13/44/16
f 6/45/17 50/46/17 138/47/17 46/48/17
f 50/46/18 20/49/18 55/50/18 138/47/18
f 138/47/19 55/50/19 19/51/19 47/52/19
f 46/48/20 138/47/20 47/52/20 10/32/20
f 1/36/21 57/53/21 139/54/21 61/55/21
f 57/53/22 2/56/22 62/57/22 139/54/22
f 139/54/23 62/57/23 10/32/23 47/52/23
f 61/55/24 139/54/24 47/52/24 19/51/24
f 4/58/25 58/59/25 140/60/25 63/61/25
f 58/59/26 3/40/26 64/62/26 140/60/26
f 140/60/27 64/62/27 17/14/27 49/11/27
f 63/61/28 140/60/28 49/11/28 12/10/28
f 3/40/29 59/37/29 141/63/29 64/62/29
f 59/37/30 1/36/30 61/55/30 141/63/30
f 141/63/31 61/55/31 19/51/31 52/64/31
f 64/62/32 141/63/32 52/64/32 17/14/32
f 2/56/33 60/65/33 142/66/33 62/57/33
f 60/65/34 4/58/34 63/61/34 142/66/34
f 142/66/35 63/61/35 12/10/35 56/33/35
f 62/57/36 142/66/36 56/33/36 10/32/36
f 6/19/37 74/22/37 143/67/37 50/68/37
f 74/22/38 14/27/38 65/69/38 143/67/38
f 143/67/39 65/69/39 13/44/39 73/70/39
f 50/68/40 143/67/40 73/70/40 20/71/40
f 2/56/41 57/53/41 144/72/41 71/73/41
f 57/53/42 1/36/42 70/39/42 144/72/42
f 144/72/43 70/39/43 13/44/43 65/69/43
f 71/73/44 144/72/44 65/69/44 14/27/44
f 4/58/45 60/65/45 145/74/45 72/75/45
f 60/65/46 2/56/46 71/73/46 145/74/46
f 145/74/47 71/73/47 14/27/47 68/26/47
f 72/75/48 145/74/48 68/26/48 16/25/48
f 3/40/49 58/59/49 146/76/49 69/41/49
f 58/59/50 4/58/50 72/75/50 146/76/50
f 146/76/51 72/75/51 16/25/51 66/77/51
f 69/41/52 146/76/52 66/77/52 15/42/52
f 8/23/53 48/78/53 147/79/53 75/24/53
f 48/78/54 18/80/54 76/81/54 147/79/54
f 147/79/55 76/81/55 15/42/55 66/77/55
f 75/24/56 147/79/56 66/77/56 16/25/56
f 18/80/57 54/82/57 148/83/57 76/81/57
f 54/82/58 20/71/58 73/70/58 148/83/58
f 148/83/59 73/70/59 13/44/59 67/43/59
f 76/81/60 148/83/60 67/43/60 15/42/60
f 11/84/61 77/85/61 149/86/61 81/87/61
f 77/85/62 7/88/62 82/89/62 149/86/62
f 149/86/63 82/89/63 18/90/63 51/91/63
f 81/87/64 149/86/64 51/91/64 17/14/64
f 9/92/65 78/93/65 150/94/65 83/95/65
f 78/93/66 11/84/66 81/87/66 150/94/66
f 150/94/67 81/87/67 17/14/67 52/64/67
f 83/95/68 150/94/68 52/64/68 19/51/68
f 7/88/69 79/96/69 151/97/69 82/89/69
f 79/96/70 5/98/70 84/99/70 151/97/70
f 151/97/71 84/99/71 20/100/71 54/101/71
f 82/89/72 151/97/72 54/101/72 18/90/72
f 5/98/73 80/102/73 152/103/73 84/99/73
f 80/102/74 9/92/74 83/95/74 152/103/74
f 152/103/75 83/95/75 19/51/75 55/104/75
f 84/99/76 152/103/76 55/104/76 20/100/76
f 23/105/77 88/106/77 153/107/77 86/108/77
f 88/106/78 24/9/78 87/8/78 153/107/78
f 153/107/79 87/8/79 22/7/79 85/109/79
f 86/108/80 153/107/80 85/109/80 21/110/80
f 33/111/81 115/112/81 154/113/81 89/114/81
f 115/112/82 34/115/82 91/116/82 154/113/82
f 154/113/83 91/116/83 21/117/83 85/109/83
f 89/114/84 154/113/84 85/109/84 22/118/84
f 36/119/85 114/120/85 155/121/85 112/122/85
f 114/120/86 35/1/86 111/4/86 155/121/86
f 155/121/87 111/4/87 24/9/87 88/106/87
f 112/122/88 155/121/88 88/106/88 23/105/88
f 34/115/89 113/123/89 156/124/89 91/125/89
f 113/123/90 36/119/90 112/122/90 156/124/90
f 156/124/91 112/122/91 23/105/91 86/108/91
f 91/125/92 156/124/92 86/108/92 21/110/92
f 42/126/93 132/127/93 157/128/93 95/129/93
f 132/127/94 44/130/94 128/131/94 157/128/94
f 157/128/95 128/131/95 28/132/95 97/133/95
f 95/129/96 157/128/96 97/133/96 27/134/96
f 44/130/97 131/135/97 158/136/97 128/131/97
f 131/135/98 43/137/98 127/138/98 158/136/98
f 158/136/99 127/138/99 26/139/99 98/140/99
f 128/131/100 158/136/100 98/140/100 28/132/100
f 41/141/101 130/142/101 159/143/101 93/144/101
f 130/142/102 42/126/102 95/145/102 159/143/102
f 159/143/103 95/145/103 27/146/103 99/147/103
f 93/144/104 159/143/104 99/147/104 25/148/104
f 43/137/105 129/149/105 160/150/105 127/138/105
f 129/149/106 41/141/106 93/151/106 160/150/106
f 160/150/107 93/151/107 25/152/107 100/153/107
f 127/138/108 160/150/108 100/153/108 26/139/108
f 27/134/109 97/133/109 161/154/109 102/155/109
f 97/133/110 28/132/110 96/156/110 161/154/110
f 161/154/111 96/156/111 32/157/111 105/158/111
f 102/155/112 161/154/112 105/158/112 30/159/112
f 28/132/113 98/140/113 162/160/113 96/156/113
f 98/140/114 26/139/114 94/161/114 162/160/114
f 162/160/115 94/161/115 31/162/115 106/163/115
f 96/156/116 162/160/116 106/163/116 32/157/116
f 25/152/117 99/147/117 163/164/117 101/165/117
f 99/147/118 27/134/118 102/155/118 163/164/118
f 163/164/119 102/155/119 30/159/119 107/166/119
f 101/165/120 163/164/120 107/166/120 29/167/120
f 26/139/121 100/153/121 164/168/121 94/161/121
f 100/153/122 25/152/122 101/165/122 164/168/122
f 164/168/123 101/165/123 29/167/123 108/169/123
f 94/161/124 164/168/124 108/169/124 31/162/124
f 30/170/125 105/158/125 165/171/125 110/172/125
f 105/158/126 32/173/126 104/174/126 165/171/126
f 165/171/127 104/174/127 36/175/127 113/176/127
f 110/172/128 165/171/128 113/176/128 34/115/128
f 32/157/129 106/163/129 166/177/129 104/178/129
f 106/163/130 31/162/130 103/179/130 166/177/130
f 166/177/131 103/179/131 35/1/131 114/120/131
f 104/178/132 166/177/132 114/120/132 36/119/132
f 29/167/133 107/166/133 167/180/133 109/181/133
f 107/166/134 30/159/134 110/182/134 167/180/134
f 167/180/135 110/182/135 34/115/135 115/183/135
f 109/181/136 167/180/136 115/183/136 33/5/136
f 31/162/137 108/169/137 168/184/137 103/179/137
f 108/169/138 29/167/138 109/181/138 168/184/138
f 168/184/139 109/181/139 33/5/139 116/2/139
f 103/179/140 168/184/140 116/2/140 35/1/140
f 5/98/141 79/96/141 169/185/141 90/186/141
f 79/96/142 7/88/142 119/187/142 169/185/142
f 169/185/143 119/187/143 39/188/143 121/189/143
f 90/186/144 169/185/144 121/189/144 37/190/144
f 7/88/145 77/85/145 170/191/145 119/187/145
f 77/85/146 11/84/146 120/192/146 170/191/146
f 170/191/147 120/192/147 40/193/147 122/194/147
f 119/187/148 170/191/148 122/194/148 39/188/148
f 9/92/149 80/195/149 171/196/149 92/197/149
f 80/195/150 5/198/150 90/199/150 171/196/150
f 171/196/151 90/199/151 37/190/151 123/200/151
f 92/197/152 171/196/152 123/200/152 38/201/152
f 11/202/153 78/203/153 172/204/153 120/205/153
f 78/203/154 9/92/154 92/197/154 172/204/154
f 172/204/155 92/197/155 38/201/155 124/206/155
f 120/205/156 172/204/156 124/206/156 40/193/156
f 37/190/157 121/207/157 173/208/157 117/209/157
f 121/207/158 39/210/158 125/211/158 173/208/158
f 173/208/159 125/211/159 41/141/159 129/212/159
f 117/209/160 173/208/160 129/212/160 43/213/160
f 39/188/161 122/194/161 174/214/161 125/215/161
f 122/194/162 40/193/162 126/216/162 174/214/162
f 174/214/163 126/216/163 42/126/163 130/142/163
f 125/215/164 174/214/164 130/142/164 41/141/164
f 38/217/165 123/218/165 175/219/165 118/220/165
f 123/218/166 37/190/166 117/221/166 175/219/166
f 175/219/167 117/221/167 43/137/167 131/135/167
f 118/220/168 175/219/168 131/135/168 44/130/168
f 40/193/169 124/206/169 176/222/169 126/216/169
f 124/206/170 38/201/170 118/223/170 176/222/170
f 176/222/171 118/223/171 44/224/171 132/225/171
f 126/216/172 176/222/172 132/225/172 42/126/172
